<svg width="24" height="24" viewBox="0 0 24 24" fill="none"
     xmlns="http://www.w3.org/2000/svg">
    <rect width="24" height="24" rx="8" fill="#0F0137"/>

    <g transform="translate(4,4)">
        <svg width="16" height="16" viewBox="0 0 16 16" fill="none" xmlns="http://www.w3.org/2000/svg">
            <path d="M10.1533 10.1736L10.0985 10.0737L10.1991 10.1273L10.3309 10.3032L10.1533 10.1736ZM11.0596 8.03258L10.9504 8L11.0596 7.96742L11.277 8L11.0596 8.03258ZM10.1736 5.84627L10.0737 5.90104L10.1273 5.80048L10.3032 5.66873L10.1736 5.84627ZM5.84668 5.82638L5.90145 5.92628L5.80089 5.87273L5.66914 5.69678L5.84668 5.82638ZM4.94041 7.96742L5.04958 8L4.94041 8.03258L4.72303 8L4.94041 7.96742ZM5.82638 10.1537L5.92628 10.099L5.87273 10.1995L5.69678 10.3313L5.82638 10.1537ZM7.96742 11.0596L8 10.9504L8.03258 11.0596L8 11.277L7.96742 11.0596ZM8.03258 4.94041L8 5.04958L7.96742 4.94041L8 4.72303L8.03258 4.94041Z" stroke="white" stroke-width="1.4" stroke-linecap="round"/>
        </svg>
    </g>
</svg>
