<svg width="24" height="24" viewBox="0 0 24 24" fill="none" xmlns="http://www.w3.org/2000/svg">
    <g clip-path="url(#clip0_49127_85)">
        <rect width="24" height="24" rx="8" fill="#1D46EB"/>
        <path d="M7.54145 7.77728H16.4303C16.5342 7.77725 16.6379 7.78383 16.7409 7.797C16.706 7.55193 16.6218 7.31648 16.4934 7.10483C16.3651 6.89318 16.1952 6.70971 15.994 6.5655C15.7928 6.42128 15.5645 6.31931 15.3228 6.26571C15.0811 6.21212 14.8311 6.20802 14.5878 6.25366L7.27756 7.50172H7.26923C6.81036 7.58947 6.4023 7.84909 6.12839 8.22755C6.54106 7.93403 7.03504 7.77662 7.54145 7.77728ZM16.4303 8.44394H7.54145C7.07011 8.44446 6.61823 8.63192 6.28494 8.96521C5.95165 9.2985 5.76419 9.75038 5.76367 10.2217V15.5551C5.76419 16.0264 5.95165 16.4783 6.28494 16.8116C6.61823 17.1449 7.07011 17.3323 7.54145 17.3328H16.4303C16.9017 17.3323 17.3536 17.1449 17.6868 16.8116C18.0201 16.4783 18.2076 16.0264 18.2081 15.5551V10.2217C18.2076 9.75038 18.0201 9.2985 17.6868 8.96521C17.3536 8.63192 16.9017 8.44446 16.4303 8.44394ZM15.1109 13.7773C14.9351 13.7773 14.7632 13.7251 14.6171 13.6275C14.4709 13.5298 14.3569 13.391 14.2897 13.2286C14.2224 13.0661 14.2048 12.8874 14.2391 12.715C14.2734 12.5425 14.358 12.3842 14.4824 12.2598C14.6067 12.1355 14.7651 12.0509 14.9375 12.0166C15.1099 11.9823 15.2886 11.9999 15.4511 12.0672C15.6135 12.1344 15.7523 12.2484 15.85 12.3945C15.9477 12.5407 15.9998 12.7126 15.9998 12.8884C15.9998 13.1241 15.9061 13.3502 15.7394 13.5169C15.5727 13.6836 15.3466 13.7773 15.1109 13.7773Z" fill="white"/>
        <path d="M5.77783 12.0972V9.33335C5.77783 8.7314 6.11117 7.72224 7.26811 7.50362C8.25005 7.31946 9.22228 7.31946 9.22228 7.31946C9.22228 7.31946 9.86117 7.7639 9.33339 7.7639C8.80561 7.7639 8.8195 8.44446 9.33339 8.44446C9.84728 8.44446 9.33339 9.09724 9.33339 9.09724L7.26394 11.4445L5.77783 12.0972Z" fill="white"/>
    </g>
    <defs>
        <clipPath id="clip0_49127_85">
            <rect width="24" height="24" fill="white"/>
        </clipPath>
    </defs>
</svg>
